<svg width="9" height="49" viewBox="0 0 9 49" fill="none" xmlns="http://www.w3.org/2000/svg">
<path d="M0 32.3641C0.0331367 33.5053 0.521776 34.5889 1.36207 35.3847C2.20237 36.1805 3.32809 36.6257 4.5 36.6257C5.67191 36.6257 6.79763 36.1805 7.63793 35.3847C8.47822 34.5889 8.96686 33.5053 9 32.3641V4.26163C8.96686 3.12041 8.47822 2.03677 7.63793 1.24099C6.79763 0.445198 5.67191 0 4.5 0C3.32809 0 2.20237 0.445198 1.36207 1.24099C0.521776 2.03677 0.0331367 3.12041 0 4.26163V32.3641ZM0 44.6161C0 47.0273 2.025 49 4.5 49C6.975 49 9 47.0273 9 44.6161C9 42.205 6.975 40.2322 4.5 40.2322C3.30769 40.2359 2.16531 40.699 1.32221 41.5203C0.479123 42.3417 0.00379718 43.4546 0 44.6161Z" fill="black"/>
</svg>
