<svg width="56" height="27" viewBox="0 0 56 27" fill="none" xmlns="http://www.w3.org/2000/svg">
<path d="M28 12.953C31.194 12.953 33.941 10.101 33.941 6.387C33.941 2.718 31.179 0 28 0C24.821 0 22.058 2.778 22.058 6.417C22.058 10.101 24.806 12.953 28 12.953ZM10.903 13.294C13.666 13.294 16.073 10.799 16.073 7.576C16.073 4.382 13.651 2.02 10.903 2.02C8.14 2.02 5.704 4.441 5.719 7.605C5.719 10.799 8.125 13.295 10.903 13.295M45.097 13.295C47.875 13.295 50.281 10.8 50.281 7.606C50.281 4.442 47.86 2.021 45.097 2.021C42.349 2.021 39.927 4.383 39.927 7.576C39.927 10.8 42.334 13.295 45.097 13.295ZM2.614 26.708H13.904C12.359 24.465 14.245 19.949 17.439 17.483C15.789 16.384 13.666 15.567 10.889 15.567C4.188 15.567 0 20.513 0 24.628C0 25.965 0.743 26.708 2.614 26.708ZM53.386 26.708C55.272 26.708 56 25.965 56 24.628C56 20.513 51.811 15.567 45.112 15.567C42.334 15.567 40.21 16.384 38.562 17.483C41.755 19.949 43.642 24.465 42.097 26.708H53.386ZM18.656 26.708H37.328C39.66 26.708 40.492 26.039 40.492 24.732C40.492 20.9 35.694 15.612 27.985 15.612C20.291 15.612 15.493 20.9 15.493 24.732C15.493 26.039 16.324 26.708 18.656 26.708Z" fill="#ECFFDC"/>
</svg>
