<svg width="45" height="43" viewBox="0 0 45 43" fill="none" xmlns="http://www.w3.org/2000/svg">
<path d="M11.25 24.1808L11.2078 24.213V24.1741C9.01741 25.9144 7.37337 28.1997 6.45751 30.7772C5.90452 32.3334 5.62326 33.9659 5.62501 35.6094V40.2722H5.6672V40.2856L8.43751 40.3125H11.25L12.6563 32.25L11.25 24.1808ZM30.9375 40.3125H36.5625V35.6094C36.563 33.4305 36.0589 31.2785 35.0864 29.3077C34.1139 27.3369 32.6971 25.5962 30.9375 24.2103L29.5313 32.25L30.9375 40.3125ZM28.125 22.4379L29.5313 26.875L28.125 30.9062L21.0938 32.25L14.0625 30.9062L12.6563 26.875L14.0625 22.4178C16.2359 21.3603 18.6408 20.8109 21.0797 20.8147C23.6152 20.8147 26.01 21.4006 28.125 22.4379Z" fill="#00D26A"/>
<path d="M14.0625 22.4178C13.0556 22.9083 12.1134 23.5008 11.25 24.1808V40.3125H30.9375V24.2103C30.0701 23.5234 29.127 22.9286 28.125 22.4366V30.2344C28.125 30.4126 28.0509 30.5835 27.9191 30.7095C27.7872 30.8355 27.6084 30.9063 27.4219 30.9063H14.7656C14.5791 30.9063 14.4003 30.8355 14.2684 30.7095C14.1366 30.5835 14.0625 30.4126 14.0625 30.2344V22.4178Z" fill="#0084CE"/>
<path d="M15.4688 36.2812C15.4688 35.9249 15.6169 35.5831 15.8806 35.3311C16.1444 35.0791 16.502 34.9375 16.875 34.9375H25.3125C25.6855 34.9375 26.0431 35.0791 26.3069 35.3311C26.5706 35.5831 26.7188 35.9249 26.7188 36.2812V40.3125H15.4688V36.2812Z" fill="#46A4FB"/>
<path d="M16.6922 28.9309L21.0797 25.9881L25.4672 28.9309C25.9875 29.2803 26.7047 28.9309 26.7047 28.3128V21.8225C24.961 21.1775 23.0625 20.8147 21.0797 20.8147C19.0969 20.8147 17.1985 21.1775 15.4547 21.8225V28.3263C15.4547 28.9175 16.1719 29.2803 16.6922 28.9309Z" fill="#008463"/>
<path d="M22.3734 26.445L21.4594 27.2244C21.2344 27.4125 20.9109 27.4125 20.6859 27.2244L19.7719 26.445C19.2694 26.0122 18.8672 25.4838 18.5911 24.8937C18.315 24.3036 18.1711 23.6648 18.1688 23.0184V18.8662C18.1688 17.3344 19.4625 16.0981 21.0656 16.0981C22.6688 16.0981 23.9625 17.3344 23.9625 18.8662V23.0184C23.9625 24.3219 23.3859 25.5716 22.3734 26.445Z" fill="#D2D1D1"/>
<path d="M21.0797 25.0744C19.4765 25.0744 18.1828 23.8381 18.1828 22.3062V18.8662C18.1828 17.3344 19.4765 16.0981 21.0797 16.0981C22.6828 16.0981 23.9765 17.3344 23.9765 18.8662V22.3062C23.9729 23.0393 23.6665 23.7413 23.124 24.2597C22.5815 24.7781 21.8468 25.0708 21.0797 25.0744Z" fill="#F4C6AD"/>
<path d="M28.793 6.70531H28.8C30.4783 6.70531 32.0879 7.34239 33.2746 8.4764C34.4614 9.61041 35.1281 11.1485 35.1281 12.7522C35.1281 16.0847 32.2875 18.7991 28.8 18.7991H13.3734C11.6951 18.8044 10.0833 18.1725 8.89259 17.0422C7.70188 15.912 7.0298 14.3761 7.02421 12.7723C7.01861 11.1686 7.67996 9.62844 8.86275 8.49065C10.0456 7.35286 11.6529 6.71065 13.3312 6.70531L14.7656 6.04687L14.4422 5.375C15.3007 4.52481 16.3296 3.84861 17.4676 3.38676C18.6055 2.92492 19.8292 2.68689 21.0656 2.68689C22.302 2.68689 23.5257 2.92492 24.6637 3.38676C25.8016 3.84861 26.8306 4.52481 27.689 5.375L27.4219 6.04687L28.793 6.70531Z" fill="#7D4533"/>
<path d="M28.7944 6.70531C28.4706 6.22964 28.1005 5.78422 27.6891 5.375H14.4422C14.0386 5.77813 13.666 6.22559 13.3369 6.70531H13.3735H28.7944Z" fill="#533566"/>
<path d="M12.825 17.2941L12.8391 13.6794C14.4141 13.6391 15.9891 13.6391 17.536 13.6391V20.9356L14.8781 20.0622C14.2788 19.8597 13.7597 19.4849 13.3921 18.9893C13.0245 18.4937 12.8264 17.9015 12.825 17.2941ZM24.6094 20.9491V13.76C26.1703 13.8003 27.7453 13.8541 29.3203 13.9078V17.3075C29.3203 18.5572 28.5047 19.6725 27.2672 20.0756L24.6094 20.9491Z" fill="#212121"/>
<path d="M16.5375 14.2169C16.5375 14.812 16.2901 15.3828 15.8497 15.8037C15.4093 16.2245 14.8119 16.4609 14.1891 16.4609C13.5662 16.4609 12.9689 16.2245 12.5285 15.8037C12.0881 15.3828 11.8406 14.812 11.8406 14.2169C11.8406 13.6217 12.0881 13.0509 12.5285 12.6301C12.9689 12.2092 13.5662 11.9728 14.1891 11.9728C14.8119 11.9728 15.4093 12.2092 15.8497 12.6301C16.2901 13.0509 16.5375 13.6217 16.5375 14.2169ZM30.3047 14.2169C30.3047 14.812 30.0573 15.3828 29.6169 15.8037C29.1764 16.2245 28.5791 16.4609 27.9563 16.4609C27.3334 16.4609 26.7361 16.2245 26.2957 15.8037C25.8552 15.3828 25.6078 14.812 25.6078 14.2169C25.6078 13.6217 25.8552 13.0509 26.2957 12.6301C26.7361 12.2092 27.3334 11.9728 27.9563 11.9728C28.5791 11.9728 29.1764 12.2092 29.6169 12.6301C30.0573 13.0509 30.3047 13.6217 30.3047 14.2169Z" fill="#F4C6AD"/>
<path d="M28.4485 12.0265L28.4625 11.8787C28.5188 10.414 27.2953 9.13748 25.7485 9.13748H16.6078C15.0047 9.13748 13.7532 10.4409 13.8938 11.9594L14.3157 18.2078C14.4925 19.4845 15.1493 20.6562 16.1636 21.5043C17.1779 22.3523 18.4804 22.8189 19.8282 22.8169H22.5C25.2844 22.8169 27.6469 20.8415 28.0125 18.2078L28.4485 12.0265Z" fill="#FFD7C2"/>
<path d="M15.7219 13.8003C15.8288 13.3769 16.0844 13.0013 16.446 12.7361C16.8077 12.471 17.2536 12.3323 17.7093 12.3434C18.165 12.3544 18.603 12.5143 18.9502 12.7966C19.2974 13.0788 19.5328 13.4663 19.6172 13.8944C19.6279 13.9402 19.6275 13.9877 19.6161 14.0334C19.6047 14.079 19.5826 14.1216 19.5514 14.1578C19.5202 14.1941 19.4808 14.2231 19.4362 14.2426C19.3916 14.2622 19.3428 14.2718 19.2937 14.2706H16.1015C15.8344 14.2706 15.6515 14.0422 15.7219 13.8003ZM26.4656 13.8003C26.2547 12.9672 25.4672 12.3491 24.525 12.3491C23.5406 12.3491 22.739 13.0209 22.5703 13.8944C22.5281 14.0959 22.6828 14.2706 22.8937 14.2706H26.0859C26.339 14.2706 26.5219 14.0422 26.4656 13.8003Z" fill="#D2D1D1"/>
<path d="M16.6782 13.9347C16.6782 13.2628 17.2547 12.7119 17.9579 12.7119C18.1547 12.7122 18.3488 12.7558 18.5252 12.8393C18.7015 12.9227 18.8555 13.0438 18.9751 13.1932C19.0947 13.3425 19.1768 13.5162 19.215 13.7007C19.2531 13.8852 19.2464 14.0756 19.1953 14.2572H16.7204C16.6925 14.1518 16.6783 14.0434 16.6782 13.9347ZM25.5094 13.9347C25.5094 13.2628 24.9328 12.7119 24.2297 12.7119C23.5125 12.7119 22.95 13.2628 22.95 13.9347C22.95 14.0422 22.9641 14.1497 22.9922 14.2572H25.4672C25.4953 14.1497 25.5094 14.0422 25.5094 13.9347Z" fill="#7D4533"/>
<path d="M17.9578 13.2494C18.3656 13.2494 18.6891 13.5584 18.6891 13.9481C18.6891 14.0556 18.6469 14.1766 18.6047 14.2706H17.3109C17.2513 14.1644 17.2217 14.0453 17.2249 13.9248C17.2282 13.8043 17.2642 13.6868 17.3295 13.5837C17.3948 13.4806 17.4871 13.3955 17.5973 13.3369C17.7075 13.2783 17.8317 13.2481 17.9578 13.2494ZM24.2297 13.2494C24.1036 13.2481 23.9793 13.2783 23.8692 13.3369C23.759 13.3955 23.6667 13.4806 23.6014 13.5837C23.5361 13.6868 23.5 13.8043 23.4968 13.9248C23.4935 14.0453 23.5232 14.1644 23.5828 14.2706H24.8766C24.9362 14.1644 24.9659 14.0453 24.9626 13.9248C24.9593 13.8043 24.9233 13.6868 24.858 13.5837C24.7927 13.4806 24.7004 13.3955 24.5902 13.3369C24.4801 13.2783 24.3558 13.2481 24.2297 13.2494Z" fill="black"/>
<path d="M17.7328 13.4644C17.7328 13.5214 17.7091 13.5761 17.6669 13.6164C17.6247 13.6567 17.5675 13.6794 17.5078 13.6794C17.4482 13.6794 17.3909 13.6567 17.3487 13.6164C17.3065 13.5761 17.2828 13.5214 17.2828 13.4644C17.2828 13.4073 17.3065 13.3527 17.3487 13.3123C17.3909 13.272 17.4482 13.2494 17.5078 13.2494C17.5675 13.2494 17.6247 13.272 17.6669 13.3123C17.7091 13.3527 17.7328 13.4073 17.7328 13.4644ZM24.061 13.4644C24.061 13.5214 24.0373 13.5761 23.9951 13.6164C23.9529 13.6567 23.8956 13.6794 23.836 13.6794C23.7763 13.6794 23.7191 13.6567 23.6769 13.6164C23.6347 13.5761 23.611 13.5214 23.611 13.4644C23.611 13.4073 23.6347 13.3527 23.6769 13.3123C23.7191 13.272 23.7763 13.2494 23.836 13.2494C23.8956 13.2494 23.9529 13.272 23.9951 13.3123C24.0373 13.3527 24.061 13.4073 24.061 13.4644Z" fill="#D2D1D1"/>
<path d="M20.6438 13.8406L19.8985 16.1384C19.7438 16.6088 20.1094 17.0791 20.6297 17.0791H21.7266C22.2469 17.0791 22.6125 16.6088 22.4578 16.1384L21.7266 13.8406C21.6908 13.7301 21.619 13.6335 21.5215 13.5648C21.4241 13.4962 21.3062 13.4591 21.1852 13.4591C21.0641 13.4591 20.9463 13.4962 20.8488 13.5648C20.7514 13.6335 20.6796 13.7301 20.6438 13.8406Z" fill="#E5AF93"/>
<path d="M21.0938 18.3825C20.3344 18.3825 19.6172 18.2078 19.0125 17.8988C18.8016 17.7913 18.5907 18.0197 18.7172 18.2078C19.2235 18.9469 20.0953 19.4441 21.0938 19.4441C22.0922 19.4441 22.9641 18.9469 23.4704 18.2078C23.5969 18.0197 23.3719 17.8047 23.175 17.8988C22.5703 18.2078 21.8532 18.3825 21.0938 18.3825Z" fill="#990838"/>
<path d="M15.9356 11.2122C15.8609 11.2739 15.8137 11.3607 15.804 11.4546C15.7943 11.5485 15.8226 11.6425 15.8833 11.717C15.9439 11.7915 16.0322 11.8409 16.1299 11.855C16.2276 11.8691 16.3272 11.8468 16.4081 11.7927L16.5417 11.7094C17.1384 11.3774 17.8318 11.2397 18.5175 11.317C18.6173 11.3254 18.7166 11.2962 18.7943 11.2358C18.872 11.1753 18.922 11.0883 18.9337 10.9933C18.9454 10.8982 18.9179 10.8025 18.857 10.7265C18.7961 10.6505 18.7066 10.6001 18.6075 10.586C17.7531 10.4898 16.8891 10.6625 16.1466 11.0779L15.9356 11.2122ZM26.3194 11.7282C26.3819 11.6512 26.4099 11.5536 26.3973 11.4569C26.3846 11.3602 26.3323 11.2722 26.2519 11.2122L26.2491 11.2095L26.2463 11.2069L26.2322 11.1988C26.1703 11.1559 26.1065 11.1156 26.041 11.0779C25.2984 10.6626 24.4345 10.4899 23.58 10.586C23.4809 10.6001 23.3914 10.6505 23.3306 10.7265C23.2697 10.8025 23.2422 10.8982 23.2539 10.9933C23.2656 11.0883 23.3156 11.1753 23.3933 11.2358C23.4709 11.2962 23.5702 11.3254 23.67 11.317C24.3557 11.2397 25.0492 11.3774 25.6458 11.7094C25.6936 11.7363 25.7302 11.7591 25.7527 11.7753L25.7766 11.7914L25.7808 11.7941C25.9481 11.9177 26.1886 11.8881 26.3194 11.7282ZM24.5672 10.2125H27.9141C27.4219 9.56748 26.6344 9.13748 25.7485 9.13748H22.1625C22.7531 9.80936 23.6391 10.2125 24.5672 10.2125Z" fill="#212121"/>
<path d="M37.9688 30.9062C38.7422 30.9062 39.375 31.4572 39.375 32.1318V34.9375H36.5625V32.1318C36.5625 31.4572 37.1812 30.9062 37.9688 30.9062Z" fill="#F4C6AD"/>
<path d="M36.5625 29.24H35.1562V34.615H36.5625V29.24Z" fill="#7D4533"/>
<path d="M40.0219 14.7678C39.8399 14.7831 39.6707 14.8636 39.5484 14.9933C39.426 15.1229 39.3595 15.292 39.3624 15.4666V21.4462C39.3624 22.1719 38.7872 22.79 38.0293 22.8303C37.2277 22.8706 36.5541 22.2525 36.5541 21.4866V15.4666C36.5541 15.1037 36.2728 14.7947 35.8946 14.7678C35.7986 14.7615 35.7022 14.7742 35.6116 14.8052C35.521 14.8362 35.4381 14.8848 35.3681 14.9479C35.2981 15.011 35.2425 15.0873 35.2048 15.1719C35.1672 15.2566 35.1483 15.3477 35.1493 15.4397V21.4462C35.1493 22.1719 34.5741 22.79 33.8161 22.8303C33.6259 22.839 33.4357 22.8108 33.2572 22.7471C33.0787 22.6835 32.9156 22.5859 32.7778 22.4603C32.64 22.3346 32.5304 22.1835 32.4555 22.0161C32.3806 21.8488 32.3422 21.6686 32.3424 21.4866V15.4666C32.3424 15.1037 32.0611 14.7947 31.6814 14.7678C31.5855 14.7617 31.4894 14.7746 31.3989 14.8057C31.3085 14.8368 31.2257 14.8854 31.1559 14.9484C31.086 15.0115 31.0306 15.0877 30.993 15.1723C30.9554 15.2568 30.9365 15.3478 30.9375 15.4397V24.9534C30.9375 26.0016 31.8235 26.875 32.9175 26.875H34.7991V29.24C34.7991 29.4012 34.9397 29.5356 35.1085 29.5356H36.6104C36.7791 29.5356 36.9197 29.4012 36.9197 29.24V26.875H38.8013C39.8968 26.875 40.7813 26.0016 40.7813 24.9534V15.4397C40.7796 15.3473 40.7583 15.2563 40.7188 15.1719C40.6793 15.0876 40.6224 15.0118 40.5515 14.9491C40.4805 14.8863 40.3971 14.8379 40.3061 14.8068C40.2151 14.7756 40.1184 14.7624 40.0219 14.7678Z" fill="#D3D3D3"/>
<path d="M34.0453 33.2713C33.5194 33.2713 33.0722 33.7012 33.061 34.2387C33.0469 34.6016 33.2255 34.9241 33.4828 35.1122C33.3467 35.2085 33.2362 35.3341 33.1604 35.4789C33.0847 35.6236 33.0458 35.7835 33.0469 35.9453C33.0469 36.2947 33.2128 36.6038 33.4828 36.7784C33.3467 36.8747 33.2362 37.0003 33.1604 37.1451C33.0847 37.2899 33.0458 37.4497 33.0469 37.6116C33.0469 37.9609 33.2128 38.27 33.4828 38.4447C33.343 38.5461 33.2314 38.6788 33.1579 38.8311C33.0843 38.9834 33.051 39.1507 33.061 39.3181C33.0722 39.8825 33.5194 40.3125 34.0453 40.3125H38.2641C38.8758 40.3125 39.375 39.7884 39.375 39.1434V34.4269C39.375 33.7819 38.8758 33.2578 38.2641 33.2578H34.0453V33.2713Z" fill="#FFD7C2"/>
</svg>
