<svg width="34" height="35" viewBox="0 0 34 35" fill="none" xmlns="http://www.w3.org/2000/svg">
<path fill-rule="evenodd" clip-rule="evenodd" d="M27 10C27 15.523 22.523 20 17 20C11.477 20 7 15.523 7 10C7 4.477 11.477 0 17 0C22.523 0 27 4.477 27 10ZM25 10C25 12.1217 24.1571 14.1566 22.6569 15.6569C21.1566 17.1571 19.1217 18 17 18C14.8783 18 12.8434 17.1571 11.3431 15.6569C9.84285 14.1566 9 12.1217 9 10C9 7.87827 9.84285 5.84344 11.3431 4.34315C12.8434 2.84285 14.8783 2 17 2C19.1217 2 21.1566 2.84285 22.6569 4.34315C24.1571 5.84344 25 7.87827 25 10Z" fill="black"/>
<path d="M23.5 22C23.3936 21.9758 23.2822 21.9886 23.184 22.0362C23.0858 22.0838 23.0068 22.1635 22.96 22.262L19 33.572V30L18.425 25.979C18.6086 25.9403 18.7775 25.8508 18.9126 25.7207C19.0477 25.5905 19.1435 25.425 19.189 25.243L19.689 23.243C19.7259 23.0956 19.7288 22.9418 19.6973 22.7931C19.6659 22.6445 19.601 22.505 19.5076 22.3852C19.4142 22.2654 19.2948 22.1684 19.1583 22.1017C19.0218 22.0349 18.8719 22.0002 18.72 22H15.282C15.1301 22 14.9802 22.0347 14.8437 22.1013C14.7072 22.1679 14.5877 22.2648 14.4942 22.3845C14.4007 22.5042 14.3357 22.6436 14.3041 22.7922C14.2725 22.9408 14.2752 23.0946 14.312 23.242L14.812 25.242C14.8573 25.4242 14.953 25.5899 15.0881 25.7202C15.2232 25.8506 15.3923 25.9402 15.576 25.979L15 30V32.696L11.04 22.262C10.9932 22.1635 10.9142 22.0838 10.816 22.0362C10.7178 21.9886 10.6064 21.9758 10.5 22C10.1177 22.0923 9.73505 22.183 9.352 22.272C7.09 22.802 4.294 23.456 2.808 24.432C1.045 25.589 0 26.953 0 28.5V35H34V28.5C34 26.953 32.955 25.59 31.192 24.432C29.706 23.456 26.91 22.802 24.648 22.272C24.245 22.178 23.858 22.088 23.5 22Z" fill="black"/>
</svg>
