<svg width="266" height="165" viewBox="0 0 266 165" fill="none" xmlns="http://www.w3.org/2000/svg">
<path d="M28.4557 15.0806C30.1213 12.7659 32.6934 11.2697 35.5288 10.9662L137.455 0.0569571C138.132 -0.0155319 138.815 -0.0188336 139.493 0.0471032L248.923 10.6903C253.479 11.1334 257.156 14.6045 257.861 19.1269L265.88 70.5545C266.261 72.9961 265.727 75.4922 264.38 77.5642L238.245 117.781C236.56 120.374 233.774 122.044 230.694 122.308L38.5488 138.802C34.1166 139.183 29.9634 136.598 28.3475 132.453L0.685236 61.5033C-0.549176 58.3372 -0.0962847 54.7614 1.88848 52.003L28.4557 15.0806Z" fill="#ECE5D8"/>
<path d="M52.1609 108.376L76.6816 125.152L12.4374 164.92L52.1609 108.376Z" fill="#ECE5D8"/>
</svg>
