<svg width="42" height="41" viewBox="0 0 42 41" fill="none" xmlns="http://www.w3.org/2000/svg">
<path opacity="0.5" d="M21 37.5833C30.6652 37.5833 38.5 29.9351 38.5 20.5C38.5 11.0649 30.6652 3.41666 21 3.41666C11.3348 3.41666 3.5 11.0649 3.5 20.5C3.5 29.9351 11.3348 37.5833 21 37.5833Z" fill="#F6C915"/>
<path d="M14.6948 26.5697C14.7975 26.4345 14.9266 26.3203 15.0746 26.2338C15.2226 26.1472 15.3866 26.0901 15.5573 26.0655C15.7279 26.0409 15.9019 26.0494 16.0692 26.0904C16.2365 26.1315 16.3938 26.2044 16.5322 26.3049C17.8062 27.2274 19.3445 27.7604 21 27.7604C22.6555 27.7604 24.1938 27.2257 25.4678 26.3049C25.6057 26.2001 25.7638 26.1232 25.9327 26.0789C26.1015 26.0345 26.2777 26.0235 26.451 26.0466C26.6242 26.0696 26.791 26.1262 26.9416 26.213C27.0921 26.2999 27.2233 26.4152 27.3276 26.5523C27.4318 26.6893 27.5069 26.8453 27.5486 27.0111C27.5902 27.1769 27.5975 27.3491 27.57 27.5177C27.5424 27.6862 27.4807 27.8477 27.3884 27.9927C27.296 28.1376 27.175 28.2631 27.0322 28.3617C25.2905 29.6329 23.1747 30.3208 21 30.3229C18.8253 30.3208 16.7095 29.6329 14.9678 28.3617C14.6881 28.1594 14.5023 27.857 14.4511 27.5209C14.3999 27.1849 14.4876 26.8427 14.6948 26.5697ZM26.25 20.5C27.216 20.5 28 19.352 28 17.9375C28 16.523 27.216 15.375 26.25 15.375C25.284 15.375 24.5 16.523 24.5 17.9375C24.5 19.352 25.284 20.5 26.25 20.5ZM15.75 20.5C16.716 20.5 17.5 19.352 17.5 17.9375C17.5 16.523 16.716 15.375 15.75 15.375C14.784 15.375 14 16.523 14 17.9375C14 19.352 14.784 20.5 15.75 20.5Z" fill="#F9F7F1"/>
</svg>
