<svg width="237" height="195" viewBox="0 0 237 195" fill="none" xmlns="http://www.w3.org/2000/svg">
<path d="M15.5403 102.291C-8.97993 84.2052 -3.51166 46.1022 25.1053 35.6422C28.9226 34.2469 32.4929 32.2516 35.6817 29.7314L53.8884 15.3423C59.1757 11.1636 65.2525 8.0956 71.7543 6.32238L88.4695 1.76369C92.7616 0.593123 97.1906 0 101.639 0H130.214C133.715 0 137.206 0.367302 140.63 1.09587L148.953 2.86656C155.585 4.2777 161.861 7.02172 167.401 10.9321L171.542 13.8547C174.52 15.9574 177.26 18.3793 179.713 21.0772L187.873 30.0529C193.142 35.8489 200.33 39.5427 208.11 40.452C223.497 42.2504 235.464 54.6765 236.684 70.1194L236.889 72.7284C237.349 78.5451 236.372 84.3857 234.046 89.7366L232.584 93.0995L231.793 94.6087C228.681 100.549 224.407 105.804 219.225 110.061L208.657 118.742C202.347 123.925 197.401 130.574 194.25 138.108L189.431 149.632C188.17 152.647 186.617 155.531 184.795 158.243L177.299 169.394C170.66 179.272 160.719 186.461 149.258 189.671L139.59 192.379C132.918 194.248 125.931 194.712 119.071 193.74L89.8425 189.602C81.0879 188.362 72.8957 184.56 66.297 178.675C60.7825 173.757 56.5698 167.551 54.0339 160.611L48.3867 145.155L46.6476 139.745C44.8186 134.054 41.9851 128.738 38.2814 124.046L32.5224 116.752C30.0956 113.678 27.2686 110.942 24.1167 108.617L15.5403 102.291Z" fill="#EAE3C0"/>
<circle cx="115.959" cy="129.797" r="49.553" fill="#DCEBFD"/>
<path d="M153.832 161.752C153.854 161.718 153.887 161.685 153.909 161.652C161.154 153.036 165.512 141.93 165.512 129.797C165.512 117.663 161.154 106.558 153.92 97.9411C153.898 97.908 153.865 97.8858 153.843 97.8527C153.721 97.7089 153.61 97.5761 153.489 97.4434C153.444 97.3881 153.4 97.3438 153.356 97.2885L152.902 96.7687L152.891 96.7576C152.725 96.5696 152.548 96.3815 152.383 96.1935L152.371 96.1825C152.018 95.8064 151.664 95.4303 151.299 95.0653L151.287 95.0542L150.757 94.5233L150.723 94.4901C150.557 94.3242 150.392 94.1694 150.226 94.0145C150.17 93.9592 150.115 93.9039 150.049 93.8486C149.938 93.738 149.827 93.6384 149.717 93.5389C149.684 93.5057 149.639 93.4725 149.606 93.4283C140.78 85.2432 128.955 80.2437 115.959 80.2437C102.962 80.2437 91.1382 85.2432 82.3005 93.4283C82.2673 93.4615 82.2231 93.4946 82.1899 93.5389C82.0793 93.6384 81.9687 93.749 81.858 93.8597C81.8027 93.915 81.7474 93.9703 81.6811 94.0256C81.5152 94.1804 81.3492 94.3463 81.1833 94.5012L81.1501 94.5344L80.6192 95.0653L80.6082 95.0764C80.2431 95.4414 79.8892 95.8174 79.5353 96.1935L79.5242 96.2046C79.3472 96.3926 79.1813 96.5806 79.0154 96.7687L79.0043 96.7797C78.8495 96.9457 78.6946 97.1226 78.5508 97.2996C78.5066 97.3549 78.4623 97.3992 78.4181 97.4545C78.2964 97.5872 78.1858 97.731 78.0641 97.8637C78.042 97.8969 78.0088 97.919 77.9867 97.9522C70.7639 106.558 66.4059 117.663 66.4059 129.797C66.4059 141.93 70.7639 153.036 77.9978 161.652C78.0199 161.685 78.0531 161.718 78.0752 161.752L78.4181 162.161C78.4623 162.216 78.5066 162.26 78.5508 162.316L79.0043 162.836C79.0043 162.847 79.0154 162.847 79.0154 162.858C79.1813 163.046 79.3472 163.234 79.5242 163.411L79.5353 163.422C79.8892 163.798 80.2431 164.174 80.5971 164.539L80.6082 164.55C80.7851 164.727 80.9511 164.904 81.128 165.07L81.1612 165.103C81.5262 165.468 81.9023 165.822 82.2784 166.165C91.1382 174.35 102.962 179.35 115.959 179.35C128.955 179.35 140.78 174.35 149.617 166.165C149.994 165.82 150.363 165.466 150.723 165.103L150.757 165.07C150.934 164.893 151.111 164.727 151.276 164.55L151.287 164.539C151.653 164.174 152.006 163.798 152.349 163.422L152.36 163.411C152.526 163.223 152.703 163.046 152.869 162.858C152.869 162.847 152.88 162.847 152.88 162.836C153.035 162.67 153.19 162.493 153.334 162.316C153.378 162.26 153.422 162.216 153.466 162.161C153.592 162.028 153.713 161.891 153.832 161.752ZM154.285 145.979C152.759 149.585 150.746 152.925 148.29 155.956C145.525 153.566 142.501 151.492 139.275 149.773C140.558 144.585 141.355 138.889 141.565 132.894H157.437C157.106 137.418 156.044 141.809 154.285 145.979ZM157.437 126.7H141.565C141.355 120.705 140.558 115.008 139.275 109.821C142.516 108.095 145.536 106.016 148.29 103.638C153.628 110.207 156.821 118.257 157.437 126.7ZM132.141 91.4705C136.532 93.3287 140.525 95.8949 144.043 99.1247C141.999 100.864 139.8 102.412 137.472 103.748C135.736 98.7707 133.513 94.4459 130.924 90.9838C131.334 91.1387 131.743 91.3046 132.141 91.4705ZM122.12 168.963C121.102 169.76 120.085 170.368 119.056 170.777V150.259C123.445 150.566 127.761 151.543 131.853 153.157C130.935 155.878 129.874 158.389 128.646 160.657C126.721 164.24 124.465 167.105 122.12 168.963ZM128.646 98.9366C129.862 101.215 130.935 103.726 131.853 106.436C127.761 108.05 123.445 109.028 119.056 109.334V88.8269C120.074 89.2362 121.102 89.8335 122.12 90.6409C124.465 92.4881 126.721 95.3529 128.646 98.9366ZM119.056 144.054V132.894H135.371C135.194 137.783 134.585 142.528 133.568 147.03L133.535 147.162C128.893 145.402 124.011 144.354 119.056 144.054ZM119.056 126.7V115.539C124.122 115.229 128.989 114.156 133.535 112.431L133.568 112.564C134.585 117.065 135.194 121.8 135.371 126.7H119.056ZM112.862 132.894V144.054C107.796 144.364 102.929 145.437 98.3831 147.162L98.3499 147.03C97.3323 142.528 96.7239 137.794 96.547 132.894H112.862ZM96.547 126.7C96.7239 121.811 97.3323 117.065 98.3499 112.564L98.3831 112.431C102.929 114.156 107.785 115.229 112.862 115.539V126.7H96.547ZM112.862 150.259V170.766C111.844 170.357 110.816 169.76 109.798 168.952C107.453 167.105 105.186 164.229 103.261 160.646C102.044 158.367 100.971 155.856 100.053 153.146C104.168 151.531 108.449 150.569 112.862 150.259ZM112.862 109.334C108.473 109.028 104.157 108.05 100.064 106.436C100.982 103.715 102.044 101.204 103.272 98.9366C105.197 95.3529 107.453 92.477 109.809 90.6299C110.827 89.8335 111.844 89.2251 112.873 88.8159V109.334H112.862ZM99.7768 91.4705C100.186 91.3046 100.584 91.1387 100.993 90.9838C98.4052 94.4459 96.1819 98.7707 94.4454 103.748C92.1226 102.421 89.9215 100.872 87.8752 99.1247C91.3926 95.8949 95.3856 93.3287 99.7768 91.4705ZM77.6328 113.614C79.1592 110.009 81.1723 106.668 83.6278 103.638C86.382 106.016 89.4016 108.095 92.6425 109.821C91.3594 115.008 90.563 120.705 90.3528 126.7H74.4804C74.8122 122.176 75.8741 117.784 77.6328 113.614ZM74.4804 132.894H90.3528C90.563 138.889 91.3594 144.585 92.6425 149.773C89.4169 151.492 86.3933 153.566 83.6278 155.956C78.2901 149.386 75.0972 141.336 74.4804 132.894ZM99.7768 168.123C95.3856 166.264 91.3926 163.698 87.8752 160.469C89.9215 158.721 92.1226 157.183 94.4454 155.845C96.1819 160.823 98.4052 165.147 100.993 168.609C100.584 168.455 100.175 168.289 99.7768 168.123ZM132.141 168.123C131.732 168.289 131.334 168.455 130.924 168.609C133.513 165.147 135.736 160.823 137.472 155.845C139.795 157.172 141.996 158.721 144.043 160.469C140.545 163.685 136.519 166.274 132.141 168.123Z" fill="black"/>
</svg>
