<svg width="99" height="99" viewBox="0 0 99 99" fill="none" xmlns="http://www.w3.org/2000/svg">
<path d="M87.3321 81.4209C87.3542 81.3877 87.3874 81.3546 87.4095 81.3214C94.6467 72.7142 99 61.6209 99 49.5C99 37.3791 94.6467 26.2858 87.4205 17.6786C87.3984 17.6454 87.3653 17.6233 87.3432 17.5902C87.2217 17.4465 87.1112 17.314 86.9896 17.1814C86.9454 17.1261 86.9012 17.0819 86.857 17.0267L86.404 16.5074L86.393 16.4963C86.2272 16.3085 86.0504 16.1206 85.8847 15.9328L85.8737 15.9218C85.5201 15.5461 85.1665 15.1704 84.8019 14.8058L84.7909 14.7948L84.2605 14.2644L84.2273 14.2313C84.0616 14.0655 83.8959 13.9108 83.7301 13.7561C83.6749 13.7009 83.6196 13.6456 83.5534 13.5904C83.4429 13.4799 83.3324 13.3805 83.2219 13.281C83.1887 13.2479 83.1445 13.2147 83.1114 13.1705C74.2942 4.9942 62.4827 0 49.5 0C36.5173 0 24.7058 4.9942 15.8776 13.1705C15.8444 13.2037 15.8002 13.2368 15.7671 13.281C15.6566 13.3805 15.5461 13.491 15.4356 13.6015C15.3804 13.6567 15.3251 13.7119 15.2588 13.7672C15.0931 13.9219 14.9273 14.0876 14.7616 14.2423L14.7285 14.2754L14.1981 14.8058L14.1871 14.8169C13.8224 15.1815 13.4689 15.5571 13.1153 15.9328L13.1042 15.9439C12.9275 16.1317 12.7617 16.3195 12.596 16.5074L12.5849 16.5184C12.4302 16.6842 12.2756 16.8609 12.1319 17.0377C12.0877 17.093 12.0435 17.1372 11.9993 17.1924C11.8778 17.325 11.7673 17.4686 11.6458 17.6012C11.6237 17.6344 11.5905 17.6565 11.5684 17.6896C4.35335 26.2858 0 37.3791 0 49.5C0 61.6209 4.35335 72.7142 11.5795 81.3214C11.6016 81.3546 11.6347 81.3877 11.6568 81.4209L11.9993 81.8297C12.0435 81.8849 12.0877 81.9291 12.1319 81.9844L12.5849 82.5037C12.5849 82.5147 12.596 82.5147 12.596 82.5258C12.7617 82.7136 12.9275 82.9015 13.1042 83.0782L13.1153 83.0893C13.4689 83.465 13.8224 83.8406 14.176 84.2052L14.1871 84.2163C14.3638 84.3931 14.5296 84.5699 14.7064 84.7356L14.7395 84.7688C15.1041 85.1334 15.4798 85.4869 15.8555 85.8295C24.7058 94.0058 36.5173 99 49.5 99C62.4827 99 74.2942 94.0058 83.1224 85.8295C83.4989 85.4845 83.8673 85.1308 84.2273 84.7688L84.2605 84.7356C84.4373 84.5588 84.6141 84.3931 84.7798 84.2163L84.7909 84.2052C85.1555 83.8406 85.509 83.465 85.8516 83.0893L85.8626 83.0782C86.0284 82.8904 86.2051 82.7136 86.3709 82.5258C86.3709 82.5147 86.3819 82.5147 86.3819 82.5037C86.5366 82.338 86.6913 82.1612 86.8349 81.9844C86.8791 81.9291 86.9233 81.8849 86.9675 81.8297C87.0925 81.6965 87.214 81.5602 87.3321 81.4209ZM87.7852 65.6648C86.2604 69.2669 84.2494 72.6037 81.7965 75.6311C79.034 73.2437 76.0137 71.172 72.7915 69.4547C74.0732 64.2727 74.8688 58.5824 75.0787 52.5938H90.9342C90.6027 57.1128 89.542 61.4993 87.7852 65.6648ZM90.9342 46.4062H75.0787C74.8688 40.4176 74.0732 34.7273 72.7915 29.5453C76.0289 27.8217 79.0453 25.7444 81.7965 23.3689C87.1285 29.9318 90.318 37.9729 90.9342 46.4062ZM65.6648 11.2148C70.0513 13.0711 74.0401 15.6345 77.5537 18.8608C75.5126 20.5988 73.3155 22.1448 70.9905 23.4794C69.2558 18.5073 67.0349 14.1871 64.4494 10.7287C64.8583 10.8834 65.2671 11.0491 65.6648 11.2148ZM55.6544 88.6249C54.6378 89.4204 53.6213 90.0281 52.5938 90.4369V69.9408C56.9779 70.2467 61.2893 71.223 65.3776 72.8357C64.4605 75.5538 63.3998 78.0619 62.1733 80.327C60.2508 83.9069 57.9968 86.7686 55.6544 88.6249ZM62.1733 18.673C63.3887 20.9491 64.4605 23.4573 65.3776 26.1643C61.2893 27.777 56.9779 28.7533 52.5938 29.0592V8.57411C53.6103 8.98293 54.6378 9.57958 55.6544 10.3862C57.9968 12.2314 60.2508 15.0931 62.1733 18.673ZM52.5938 63.7423V52.5938H68.8912C68.7144 57.4775 68.1067 62.2175 67.0902 66.7145L67.057 66.8471C62.4201 65.0887 57.5438 64.042 52.5938 63.7423ZM52.5938 46.4062V35.2577C57.6542 34.9483 62.5159 33.8766 67.057 32.1529L67.0902 32.2855C68.1067 36.7825 68.7144 41.5115 68.8912 46.4062H52.5938ZM46.4062 52.5938V63.7423C41.3458 64.0517 36.4842 65.1234 31.943 66.8471L31.9098 66.7145C30.8933 62.2175 30.2856 57.4885 30.1088 52.5938H46.4062ZM30.1088 46.4062C30.2856 41.5225 30.8933 36.7825 31.9098 32.2855L31.943 32.1529C36.4842 33.8766 41.3347 34.9483 46.4062 35.2577V46.4062H30.1088ZM46.4062 69.9408V90.4259C45.3897 90.0171 44.3622 89.4204 43.3456 88.6138C41.0032 86.7686 38.7382 83.8959 36.8156 80.316C35.6002 78.0398 34.5285 75.5317 33.6114 72.8247C37.7217 71.2115 41.9977 70.2502 46.4062 69.9408ZM46.4062 29.0592C42.0221 28.7533 37.7107 27.777 33.6224 26.1643C34.5395 23.4462 35.6002 20.9381 36.8267 18.673C38.7492 15.0931 41.0032 12.2203 43.3567 10.3751C44.3732 9.57958 45.3897 8.97188 46.4173 8.56306V29.0592H46.4062ZM33.3352 11.2148C33.744 11.0491 34.1417 10.8834 34.5506 10.7287C31.9651 14.1871 29.7442 18.5073 28.0095 23.4794C25.6892 22.1535 23.4904 20.6066 21.4463 18.8608C24.9599 15.6345 28.9487 13.0711 33.3352 11.2148ZM11.2148 33.3352C12.7396 29.7332 14.7506 26.3963 17.2035 23.3689C19.9547 25.7444 22.9711 27.8217 26.2085 29.5453C24.9268 34.7273 24.1313 40.4176 23.9213 46.4062H8.06585C8.39732 41.8872 9.45804 37.5007 11.2148 33.3352ZM8.06585 52.5938H23.9213C24.1313 58.5824 24.9268 64.2727 26.2085 69.4547C22.9863 71.172 19.966 73.2437 17.2035 75.6311C11.8715 69.0683 8.68203 61.0271 8.06585 52.5938ZM33.3352 87.7852C28.9487 85.9289 24.9599 83.3655 21.4463 80.1392C23.4904 78.3934 25.6892 76.8576 28.0095 75.5207C29.7442 80.4927 31.9651 84.813 34.5506 88.2713C34.1417 88.1166 33.7329 87.9509 33.3352 87.7852ZM65.6648 87.7852C65.256 87.9509 64.8583 88.1166 64.4494 88.2713C67.0349 84.813 69.2558 80.4927 70.9905 75.5207C73.3108 76.8465 75.5096 78.3934 77.5537 80.1392C74.0595 83.3521 70.0377 85.9386 65.6648 87.7852Z" fill="black"/>
</svg>
