<svg width="25" height="35" viewBox="0 0 25 35" fill="none" xmlns="http://www.w3.org/2000/svg">
<path d="M5.28315 21.0389H19.7169L14.6382 12.7076L17.5194 12.5226L12.5 5.1354L7.48259 12.5226L10.3677 12.7041L5.28315 21.0389ZM21.0092 15.7982L24.7639 21.9568C24.9259 22.2226 25.0071 22.521 24.9995 22.8227C24.9919 23.1245 24.8958 23.4194 24.7206 23.6786C24.5454 23.9378 24.2971 24.1524 23.9998 24.3015C23.7026 24.4505 23.3667 24.529 23.0249 24.5292H14.4761V33.2549C14.4761 33.7177 14.2679 34.1616 13.8973 34.4889C13.5267 34.8161 13.0241 35 12.5 35C11.9759 35 11.4733 34.8161 11.1027 34.4889C10.7321 34.1616 10.5239 33.7177 10.5239 33.2549V24.5292H1.9751C1.63329 24.529 1.29737 24.4505 1.00016 24.3015C0.702943 24.1524 0.454598 23.9378 0.279383 23.6786C0.104168 23.4194 0.00807336 23.1245 0.0004869 22.8227C-0.00709956 22.521 0.0740814 22.2226 0.236099 21.9568L3.99076 15.7982L2.56794 15.1228C2.32497 14.8455 2.18268 14.5097 2.15976 14.1596C2.13683 13.8096 2.23435 13.4615 2.43949 13.1613L10.8065 0.845841C10.9821 0.587818 11.2304 0.374323 11.5272 0.226108C11.8239 0.0778931 12.1591 0 12.5 0C12.8409 0 13.1761 0.0778931 13.4728 0.226108C13.7696 0.374323 14.0179 0.587818 14.1935 0.845841L22.5605 13.1613C22.7644 13.4615 22.8614 13.8089 22.8389 14.1584C22.8163 14.5079 22.6753 14.8433 22.434 15.1211L21.0092 15.7982Z" fill="#CBDF61"/>
</svg>
