<svg width="23" height="30" viewBox="0 0 23 30" fill="none" xmlns="http://www.w3.org/2000/svg">
<path d="M7.75458 29.0112C7.74107 29.0112 7.72758 29.0112 7.70059 29.0112C5.43378 28.9977 3.81463 26.9603 2.66774 25.1927C-0.260227 20.6996 -0.853915 15.0461 1.26447 11.7672C2.68123 9.56789 4.97502 8.20508 7.24183 8.20508C8.41572 8.20508 9.33329 8.52894 10.1429 8.82578C10.7905 9.05516 11.3437 9.25753 11.9239 9.25753C12.4367 9.25753 12.8819 9.08215 13.4486 8.86626C14.2312 8.56942 15.1892 8.20508 16.579 8.20508C18.5759 8.20508 20.6269 9.27104 22.0571 11.0791C22.246 11.3085 22.3135 11.6188 22.2595 11.9022C22.2055 12.1991 22.0166 12.4419 21.7603 12.5903C20.2356 13.4269 19.399 14.9516 19.5204 16.6787C19.6419 18.4328 20.7213 19.917 22.3405 20.5242C22.5968 20.6186 22.8127 20.821 22.9207 21.0774C23.0286 21.3338 23.0286 21.6306 22.9072 21.8735C22.3135 23.1958 22.0166 23.803 21.2475 24.9903C19.9657 26.9603 18.3466 28.9842 16.1337 29.0112C15.1757 29.0112 14.5281 28.7279 13.9614 28.458C13.3947 28.2017 12.8414 27.9993 11.9644 27.9723C11.0199 27.9723 10.5207 28.2017 9.94047 28.458C9.34678 28.7279 8.69907 29.0112 7.75458 29.0112ZM7.24183 10.229C5.64967 10.229 4.01703 11.241 2.96458 12.8602C1.53433 15.073 1.54782 19.7551 4.36784 24.0863C5.24488 25.4356 6.41877 26.9738 7.72758 26.9873C8.21332 26.9738 8.57763 26.8389 9.07693 26.623C9.73808 26.3261 10.5611 25.9618 11.9239 25.9483C13.2597 25.9214 14.1233 26.3126 14.7844 26.623C15.2702 26.8524 15.594 27.0008 16.0932 26.9873C17.3616 26.9738 18.5894 25.3277 19.5339 23.8974C20.0332 23.1283 20.3165 22.6426 20.6269 21.9544C18.8188 20.8885 17.6314 19.013 17.483 16.8271C17.3346 14.7627 18.1711 12.8332 19.7093 11.5513C18.7648 10.7148 17.6449 10.2425 16.5655 10.2425C15.5535 10.2425 14.8789 10.4989 14.1638 10.7688C13.4891 11.0251 12.7875 11.295 11.9104 11.295C10.9794 11.295 10.2103 11.0116 9.45473 10.7553C8.73955 10.4719 8.05141 10.229 7.24183 10.229ZM11.2493 7.93525C11.2088 7.93525 11.1548 7.93525 11.1144 7.93525C10.6421 7.92176 10.2373 7.57094 10.1564 7.09869C9.87301 5.57399 10.4127 3.81989 11.5866 2.38964C12.666 1.08083 14.4471 0.109349 16.0258 0.00140527C16.579 -0.0255806 17.0243 0.338755 17.0917 0.864979C17.3211 2.44365 16.8219 4.17073 15.7019 5.61447C14.609 7.03123 12.8684 7.93525 11.2493 7.93525ZM15.0678 2.29523C14.3392 2.59207 13.624 3.0913 13.1518 3.67149C12.7065 4.21121 12.2882 4.96681 12.1533 5.7494C12.8819 5.50653 13.6105 5.02077 14.1098 4.37311C14.3796 4.03579 14.8924 3.25322 15.0678 2.29523Z" fill="#ECFFDC"/>
</svg>
