<svg width="266" height="165" viewBox="0 0 266 165" fill="none" xmlns="http://www.w3.org/2000/svg">
<path d="M28.4556 15.0806C30.1211 12.7659 32.6933 11.2697 35.5287 10.9662L137.455 0.0569571C138.132 -0.0155319 138.815 -0.0188336 139.493 0.0471033L248.923 10.6904C253.479 11.1334 257.156 14.6046 257.861 19.1269L265.88 70.5545C266.261 72.9961 265.727 75.4923 264.38 77.5642L238.245 117.781C236.56 120.374 233.774 122.044 230.694 122.309L38.5487 138.802C34.1165 139.183 29.9633 136.598 28.3474 132.453L0.685114 61.5033C-0.549299 58.3372 -0.0964072 54.7614 1.88836 52.003L28.4556 15.0806Z" fill="#EAE3C0"/>
<path d="M52.1608 108.376L76.6815 125.153L12.4373 164.92L52.1608 108.376Z" fill="#EAE3C0"/>
</svg>
