<svg width="25" height="25" viewBox="0 0 25 25" fill="none" xmlns="http://www.w3.org/2000/svg">
<path d="M24.745 10.25H12.7552V14.875H19.7705C19.643 16 18.8777 17.75 17.2195 18.875C16.1991 19.625 14.6685 20.125 12.7552 20.125C9.4388 20.125 6.50512 18 5.48471 14.875C5.22961 14.125 5.10205 13.25 5.10205 12.375C5.10205 11.5 5.22961 10.625 5.48471 9.875C5.61226 9.625 5.61226 9.375 5.73981 9.25C6.88777 6.625 9.56635 4.75 12.7552 4.75C15.1787 4.75 16.7093 5.75 17.7297 6.625L21.3011 3.125C19.1326 1.25 16.1991 0 12.7552 0C7.78063 0 3.44389 2.75 1.40306 6.875C0.510205 8.625 0 10.5 0 12.5C0 14.5 0.510205 16.375 1.40306 18.125C3.44389 22.25 7.78063 25 12.7552 25C16.1991 25 19.1326 23.875 21.1735 22C23.5969 19.875 25 16.625 25 12.75C25 11.75 24.8726 11 24.745 10.25Z" fill="#ECFFDC"/>
</svg>
