<svg width="30" height="30" viewBox="0 0 30 30" fill="none" xmlns="http://www.w3.org/2000/svg">
<path d="M18.8371 30H12.558V19.8837H11.2324C10.4231 19.8837 9.76733 19.2279 9.76733 18.4186V15.7674C9.76733 14.9581 10.4231 14.3023 11.2324 14.3023H12.558V10.8139C12.558 7.92555 14.9022 5.58136 17.7906 5.58136H21.558C22.3673 5.58136 23.0231 6.23716 23.0231 7.04646V10.3953C23.0231 11.2046 22.3673 11.8604 21.558 11.8604H18.8371V14.3023H21.4604C21.9069 14.3023 22.3115 14.4976 22.5906 14.8325C22.8697 15.1674 22.9813 15.6139 22.8976 16.0465L22.3673 18.6976C22.2278 19.3814 21.6278 19.8697 20.9301 19.8697H18.8371V30ZM14.6511 27.9069H16.7441V17.7907H20.4278L20.7069 16.3953H16.758V11.2325C16.758 10.4232 17.4138 9.76741 18.2231 9.76741H20.9441V7.67438H17.7906C16.0604 7.67438 14.6511 9.08369 14.6511 10.8139V16.3953H11.8604V17.7907H14.6511V27.9069Z" fill="#ECFFDC"/>
<path d="M19.186 30H10.814C3.23721 30 0 26.7628 0 19.186V10.814C0 3.23721 3.23721 0 10.814 0H19.186C26.7628 0 30 3.23721 30 10.814V19.186C30 26.7628 26.7628 30 19.186 30ZM10.814 2.09302C4.38139 2.09302 2.09302 4.38139 2.09302 10.814V19.186C2.09302 25.6186 4.38139 27.907 10.814 27.907H19.186C25.6186 27.907 27.907 25.6186 27.907 19.186V10.814C27.907 4.38139 25.6186 2.09302 19.186 2.09302H10.814Z" fill="#ECFFDC"/>
</svg>
