<svg width="82" height="87" viewBox="0 0 82 87" fill="none" xmlns="http://www.w3.org/2000/svg">
<path d="M20.5 3.5C29.9351 3.5 37.5833 11.3348 37.5833 21C37.5833 30.6652 29.9351 38.5 20.5 38.5C11.0649 38.5 3.41667 30.6652 3.41667 21C3.41667 11.3348 11.0649 3.5 20.5 3.5ZM20.4829 17.5H18.7917C18.3562 17.5005 17.9374 17.6713 17.6208 17.9775C17.3042 18.2837 17.1137 18.7022 17.0882 19.1474C17.0626 19.5927 17.2041 20.0312 17.4835 20.3732C17.763 20.7153 18.1594 20.9351 18.5918 20.9878L18.7917 21V29.7325C18.7917 30.6425 19.4647 31.395 20.3292 31.4895L20.5171 31.5H21.3542C21.7135 31.5 22.0636 31.384 22.3548 31.1684C22.646 30.9528 22.8635 30.6487 22.9762 30.2992C23.089 29.9498 23.0913 29.5728 22.9829 29.2219C22.8745 28.871 22.6608 28.5641 22.3723 28.3448L22.2083 28.2345V19.2675C22.2083 18.3575 21.5353 17.605 20.6708 17.5105L20.4829 17.5ZM20.5 12.25C20.0469 12.25 19.6124 12.4344 19.292 12.7626C18.9717 13.0908 18.7917 13.5359 18.7917 14C18.7917 14.4641 18.9717 14.9092 19.292 15.2374C19.6124 15.5656 20.0469 15.75 20.5 15.75C20.9531 15.75 21.3876 15.5656 21.708 15.2374C22.0283 14.9092 22.2083 14.4641 22.2083 14C22.2083 13.5359 22.0283 13.0908 21.708 12.7626C21.3876 12.4344 20.9531 12.25 20.5 12.25Z" fill="black"/>
<path d="M73 70.7036C73.0331 71.8215 73.5218 72.883 74.3621 73.6626C75.2024 74.4421 76.3281 74.8782 77.5 74.8782C78.6719 74.8782 79.7976 74.4421 80.6379 73.6626C81.4782 72.883 81.9669 71.8215 82 70.7036V43.1747C81.9669 42.0567 81.4782 40.9952 80.6379 40.2157C79.7976 39.4361 78.6719 39 77.5 39C76.3281 39 75.2024 39.4361 74.3621 40.2157C73.5218 40.9952 73.0331 42.0567 73 43.1747V70.7036ZM73 82.7056C73 85.0675 75.025 87 77.5 87C79.975 87 82 85.0675 82 82.7056C82 80.3437 79.975 78.4112 77.5 78.4112C76.3077 78.4148 75.1653 78.8684 74.3222 79.673C73.4791 80.4776 73.0038 81.5678 73 82.7056Z" fill="black"/>
</svg>
