<svg width="46" height="46" viewBox="0 0 46 46" fill="none" xmlns="http://www.w3.org/2000/svg">
<path d="M19.4465 6.22531C19.7329 5.51751 20.2241 4.91135 20.8572 4.48454C21.4904 4.05773 22.2365 3.82971 23 3.82971C23.7636 3.82971 24.5097 4.05773 25.1428 4.48454C25.7759 4.91135 26.2672 5.51751 26.5535 6.22531C29.3878 7.00479 31.8879 8.69313 33.6697 11.031C35.4515 13.3689 36.4166 16.2271 36.4167 19.1666V28.1692L39.928 33.4362C40.1206 33.7249 40.2312 34.0604 40.2481 34.407C40.2649 34.7536 40.1873 35.0982 40.0236 35.4042C39.8599 35.7101 39.6162 35.9659 39.3186 36.1442C39.0209 36.3225 38.6804 36.4167 38.3334 36.4166H29.6413C29.4105 38.0134 28.6122 39.4736 27.3925 40.5297C26.1728 41.5858 24.6134 42.1671 23 42.1671C21.3867 42.1671 19.8273 41.5858 18.6076 40.5297C17.3879 39.4736 16.5896 38.0134 16.3588 36.4166H7.66671C7.31971 36.4167 6.97921 36.3225 6.68153 36.1442C6.38384 35.9659 6.14015 35.7101 5.97645 35.4042C5.81275 35.0982 5.73518 34.7536 5.75201 34.407C5.76885 34.0604 5.87946 33.7249 6.07204 33.4362L9.58338 28.1692V19.1666C9.58338 12.9873 13.7617 7.78164 19.4465 6.22531ZM20.2899 36.4166C20.4878 36.9776 20.8549 37.4633 21.3404 37.8068C21.826 38.1504 22.4062 38.3349 23.001 38.3349C23.5958 38.3349 24.176 38.1504 24.6616 37.8068C25.1471 37.4633 25.5142 36.9776 25.7121 36.4166H20.2899ZM23 9.58331C20.4584 9.58331 18.0208 10.593 16.2236 12.3902C14.4264 14.1874 13.4167 16.625 13.4167 19.1666V28.75C13.4168 29.1286 13.3047 29.4987 13.0947 29.8137L11.249 32.5833H34.7492L32.9035 29.8137C32.6941 29.4985 32.5827 29.1284 32.5834 28.75V19.1666C32.5834 16.625 31.5737 14.1874 29.7765 12.3902C27.9793 10.593 25.5417 9.58331 23 9.58331Z" fill="black"/>
<circle cx="37" cy="10" r="6" fill="#FB3A3A"/>
</svg>
