<svg width="42" height="42" viewBox="0 0 42 42" fill="none" xmlns="http://www.w3.org/2000/svg">
<g clip-path="url(#clip0_1_432)">
<path d="M21 3.5C30.6652 3.5 38.5 11.3348 38.5 21C38.5 30.6652 30.6652 38.5 21 38.5C11.3348 38.5 3.5 30.6652 3.5 21C3.5 11.3348 11.3348 3.5 21 3.5ZM20.9825 17.5H19.25C18.804 17.5005 18.3749 17.6713 18.0506 17.9775C17.7263 18.2837 17.5311 18.7022 17.5049 19.1474C17.4788 19.5927 17.6237 20.0312 17.91 20.3732C18.1962 20.7153 18.6023 20.9351 19.0453 20.9878L19.25 21V29.7325C19.25 30.6425 19.9395 31.395 20.825 31.4895L21.0175 31.5H21.875C22.243 31.5 22.6017 31.384 22.9 31.1684C23.1983 30.9528 23.4211 30.6487 23.5366 30.2992C23.6521 29.9498 23.6545 29.5728 23.5435 29.2219C23.4324 28.871 23.2135 28.5641 22.918 28.3448L22.75 28.2345V19.2675C22.75 18.3575 22.0605 17.605 21.175 17.5105L20.9825 17.5ZM21 12.25C20.5359 12.25 20.0908 12.4344 19.7626 12.7626C19.4344 13.0908 19.25 13.5359 19.25 14C19.25 14.4641 19.4344 14.9092 19.7626 15.2374C20.0908 15.5656 20.5359 15.75 21 15.75C21.4641 15.75 21.9092 15.5656 22.2374 15.2374C22.5656 14.9092 22.75 14.4641 22.75 14C22.75 13.5359 22.5656 13.0908 22.2374 12.7626C21.9092 12.4344 21.4641 12.25 21 12.25Z" fill="black"/>
</g>
<defs>
<clipPath id="clip0_1_432">
<rect width="42" height="42" fill="white"/>
</clipPath>
</defs>
</svg>
